<svg width="578" height="508" viewBox="0 0 578 508" fill="none" xmlns="http://www.w3.org/2000/svg">
<path d="M257.002 117.602C237.313 128.799 217.776 139.913 198.278 151C198.166 150.945 198.133 150.933 198.106 150.913C198.08 150.895 198.042 150.873 198.042 150.85C198.025 128.751 198.012 106.65 198.002 84.5505C198.002 84.4234 197.969 84.2763 198.187 84.1466C198.51 84.2115 198.812 84.4458 199.133 84.6278C203.435 87.0711 207.735 89.5169 212.034 91.9626C212.244 92.0823 212.467 92.1845 212.662 92.3216C213.052 92.5959 213.295 92.4637 213.477 92.0823C213.55 91.9252 213.651 91.7856 213.737 91.636C227.955 67.3778 242.185 43.1246 256.384 18.859C257.999 16.0966 259.57 13.3167 261.782 10.9632C269.144 3.11983 278.242 -0.7171 289.071 0.11062C300.517 0.98571 309.442 6.3609 315.228 16.1315C330.151 41.3296 344.882 66.6424 359.689 91.9053C360.144 92.6881 360.144 92.7006 359.388 93.1294C350.341 98.2802 341.291 103.426 332.239 108.574C331.467 109.013 331.457 109.008 330.951 108.141C322.678 94.007 314.408 79.8709 306.132 65.7399C301.828 58.3951 297.518 51.0528 293.196 43.7155C291.128 40.2052 286.429 39.011 282.835 41.0105C281.587 41.7085 280.621 42.6485 279.909 43.8526C276.025 50.4445 272.14 57.0413 268.261 63.6381C265.877 67.692 263.473 71.7383 261.132 75.8146C254.977 86.5326 248.646 97.1483 242.428 107.826C241.742 109.008 241.62 108.789 242.929 109.534C247.347 112.05 251.768 114.563 256.187 117.078C256.42 117.213 256.64 117.37 257.002 117.602Z" fill="#B9B9B9" style="mix-blend-mode:multiply"/>
<path d="M154.17 397.566C173.747 408.97 193.177 420.283 212.564 431.577C212.572 431.701 212.578 431.736 212.574 431.77C212.572 431.801 212.571 431.845 212.552 431.856C193.326 442.976 174.096 454.094 154.866 465.207C154.755 465.271 154.644 465.374 154.422 465.25C154.317 464.938 154.371 464.559 154.368 464.19C154.347 459.241 154.328 454.293 154.31 449.345C154.309 449.103 154.287 448.859 154.309 448.622C154.353 448.147 154.117 448.003 153.694 448.037C153.52 448.053 153.348 448.035 153.175 448.036C124.961 447.929 96.7459 447.808 68.5347 447.72C65.3241 447.711 62.1198 447.749 58.9668 447.019C48.4638 444.592 40.581 438.651 35.8938 428.869C30.9394 418.529 31.1605 408.108 36.7756 398.194C51.2549 372.624 65.9301 347.162 80.524 321.66C80.9779 320.872 80.9887 320.866 81.7398 321.305C90.7409 326.542 99.739 331.784 108.74 337.026C109.508 337.474 109.509 337.485 109.006 338.359C100.836 352.616 92.6622 366.873 84.4954 381.132C80.2524 388.546 76.0141 395.964 71.7864 403.389C69.7636 406.942 71.071 411.606 74.6059 413.71C75.8365 414.438 77.1373 414.802 78.5405 414.812C86.2178 414.86 93.8994 414.905 101.578 414.945C106.297 414.97 111.02 415.016 115.737 414.993C128.139 414.93 140.54 415.072 152.939 415.085C154.31 415.084 154.18 415.299 154.176 413.793C154.158 408.707 154.138 403.62 154.121 398.534C154.122 398.265 154.149 397.996 154.17 397.566Z" fill="#B9B9B9" style="mix-blend-mode:multiply"/>
<path d="M450.405 351.72C450.56 329.764 450.71 307.976 450.865 286.233C450.965 286.166 450.992 286.145 451.022 286.131C451.049 286.118 451.086 286.097 451.105 286.108C469.648 296.794 488.191 307.486 506.731 318.178C506.837 318.24 506.977 318.283 506.98 318.529C506.768 318.769 506.426 318.909 506.117 319.091C501.982 321.52 497.847 323.947 493.711 326.373C493.508 326.491 493.315 326.629 493.105 326.726C492.686 326.921 492.679 327.189 492.911 327.526C493.007 327.664 493.075 327.817 493.159 327.961C506.611 351.647 520.053 375.341 533.52 399.015C535.054 401.709 536.624 404.375 537.525 407.372C540.534 417.352 539.342 426.85 533.397 435.543C527.114 444.731 518.278 449.624 507.278 449.751C478.909 450.081 450.537 450.195 422.17 450.396C421.292 450.4 421.282 450.394 421.289 449.551C421.356 439.459 421.427 429.368 421.498 419.273C421.505 418.412 421.514 418.406 422.487 418.401C438.352 418.298 454.217 418.198 470.081 418.091C478.328 418.033 486.576 417.969 494.825 417.892C498.772 417.856 502.052 414.487 502.117 410.501C502.137 409.116 501.817 407.849 501.152 406.669C497.507 400.214 493.857 393.758 490.206 387.306C487.961 383.341 485.733 379.363 483.45 375.423C477.444 365.065 471.611 354.607 465.67 344.215C465.011 343.067 465.254 343.071 463.994 343.809C459.742 346.301 455.491 348.797 451.239 351.289C451.013 351.42 450.775 351.528 450.405 351.72Z" fill="#B9B9B9" style="mix-blend-mode:multiply"/>
<path d="M176.677 279.202L176.586 279.331L176.585 279.488L176.5 295.497L176.497 296H177H215.384V314.733V315.233H215.884H229.34H229.84V314.733V296H243.645H244.145V295.5V279.491V278.991H243.645H229.84V224.728V224.228H229.34H215.884H215.625L215.476 224.439L176.677 279.202ZM297.832 241.698L297.837 241.7C300.333 242.966 302.466 244.847 304.234 247.358C306.003 249.871 307.368 252.979 308.318 256.696L308.32 256.701C309.296 260.373 309.789 264.628 309.789 269.471C309.789 274.353 309.296 278.647 308.319 282.358L308.318 282.362C307.368 286.078 306.004 289.186 304.235 291.698C302.467 294.171 300.333 296.054 297.834 297.359C295.338 298.623 292.517 299.261 289.361 299.261C286.205 299.261 283.384 298.623 280.888 297.359C278.389 296.054 276.255 294.171 274.487 291.698C272.718 289.185 271.339 286.076 270.361 282.36C269.412 278.648 268.934 274.353 268.934 269.471C268.934 264.627 269.412 260.371 270.361 256.698C271.34 252.981 272.719 249.872 274.488 247.358C276.257 244.847 278.389 242.966 280.885 241.701L280.89 241.698C283.386 240.395 286.206 239.739 289.361 239.739C292.516 239.739 295.336 240.395 297.832 241.698ZM336.032 279.202L335.94 279.331L335.94 279.488L335.855 295.497L335.852 296H336.355H374.738V314.733V315.233H375.238H388.695H389.195V314.733V296H403H403.5V295.5V279.491V278.991H403H389.195V224.728V224.228H388.695H375.238H374.98L374.83 224.439L336.032 279.202ZM215.384 249.377V278.991H194.188L215.384 249.377ZM256.915 249.873C255.288 255.683 254.477 262.237 254.477 269.529C254.477 276.821 255.288 283.374 256.915 289.185C258.542 294.991 260.858 299.925 263.872 303.975C266.888 308.028 270.557 311.132 274.875 313.28C279.197 315.43 284.029 316.5 289.361 316.5C294.693 316.5 299.525 315.43 303.847 313.28C308.166 311.132 311.834 308.028 314.85 303.975C317.864 299.925 320.18 294.991 321.807 289.185C323.434 283.374 324.245 276.821 324.245 269.529C324.245 262.237 323.434 255.683 321.807 249.873C320.181 244.067 317.864 239.133 314.85 235.083C311.834 230.992 308.166 227.868 303.847 225.72C299.525 223.57 294.693 222.5 289.361 222.5C284.029 222.5 279.197 223.57 274.875 225.72C270.556 227.868 266.888 230.992 263.872 235.083C260.858 239.133 258.542 244.067 256.915 249.873ZM353.543 278.991L374.738 249.377V278.991H353.543Z" fill="#B9B9B9" stroke="#B7B7B7"/>
</svg>
